<mxfile host="app.diagrams.net" agent="Mozilla/5.0 (Windows NT 10.0; Win64; x64) AppleWebKit/537.36 (KHTML, like Gecko) Chrome/128.0.0.0 Safari/537.36 Edg/128.0.0.0" version="24.7.12">
  <diagram name="Page-1" id="10xUOoZB6ZYBFLNR_NRF">
    <mxGraphModel dx="1368" dy="519" grid="1" gridSize="10" guides="1" tooltips="1" connect="1" arrows="1" fold="1" page="1" pageScale="1" pageWidth="850" pageHeight="1100" math="0" shadow="0">
      <root>
        <mxCell id="0" />
        <mxCell id="1" parent="0" />
        <mxCell id="wEJVVZ1OubtGXcDkp_JM-1" value="sa_mesh_run_between_grid.f90" style="rounded=0;whiteSpace=wrap;html=1;fillColor=#F8CECC;" parent="1" vertex="1">
          <mxGeometry x="325" y="30" width="185" height="50" as="geometry" />
        </mxCell>
        <mxCell id="7oljmgm_8Q_aeO7kgqim-69" value="" style="group" parent="1" vertex="1" connectable="0">
          <mxGeometry x="53.53000000000001" y="750" width="227.50000000000003" height="812" as="geometry" />
        </mxCell>
        <mxCell id="7oljmgm_8Q_aeO7kgqim-61" style="edgeStyle=orthogonalEdgeStyle;rounded=0;orthogonalLoop=1;jettySize=auto;html=1;exitX=0.5;exitY=1;exitDx=0;exitDy=0;entryX=0.5;entryY=0;entryDx=0;entryDy=0;" parent="7oljmgm_8Q_aeO7kgqim-69" source="Qatt-AjyccafXuUgTQb3-1" target="7oljmgm_8Q_aeO7kgqim-55" edge="1">
          <mxGeometry relative="1" as="geometry" />
        </mxCell>
        <mxCell id="Qatt-AjyccafXuUgTQb3-1" value="run_within_grid_stas_basin_update" style="rounded=1;whiteSpace=wrap;html=1;" parent="7oljmgm_8Q_aeO7kgqim-69" vertex="1">
          <mxGeometry width="227.5" height="60" as="geometry" />
        </mxCell>
        <mxCell id="Qatt-AjyccafXuUgTQb3-12" value="" style="edgeStyle=orthogonalEdgeStyle;rounded=0;orthogonalLoop=1;jettySize=auto;html=1;exitX=0.523;exitY=0.92;exitDx=0;exitDy=0;exitPerimeter=0;" parent="7oljmgm_8Q_aeO7kgqim-69" source="7oljmgm_8Q_aeO7kgqim-56" target="Qatt-AjyccafXuUgTQb3-11" edge="1">
          <mxGeometry relative="1" as="geometry">
            <mxPoint x="113.79777777777784" y="250" as="sourcePoint" />
          </mxGeometry>
        </mxCell>
        <mxCell id="Qatt-AjyccafXuUgTQb3-14" value="" style="edgeStyle=orthogonalEdgeStyle;rounded=0;orthogonalLoop=1;jettySize=auto;html=1;" parent="7oljmgm_8Q_aeO7kgqim-69" source="Qatt-AjyccafXuUgTQb3-11" target="Qatt-AjyccafXuUgTQb3-13" edge="1">
          <mxGeometry relative="1" as="geometry" />
        </mxCell>
        <mxCell id="Qatt-AjyccafXuUgTQb3-11" value="Assigns basin array variables (vs%basin%*) equal to the fraction (shd%FRAC) of grid variables (vs%grid%*)" style="whiteSpace=wrap;html=1;rounded=1;" parent="7oljmgm_8Q_aeO7kgqim-69" vertex="1">
          <mxGeometry x="11.260000000000012" y="280" width="205" height="110" as="geometry" />
        </mxCell>
        <mxCell id="Qatt-AjyccafXuUgTQb3-16" value="" style="edgeStyle=orthogonalEdgeStyle;rounded=0;orthogonalLoop=1;jettySize=auto;html=1;" parent="7oljmgm_8Q_aeO7kgqim-69" source="Qatt-AjyccafXuUgTQb3-13" target="Qatt-AjyccafXuUgTQb3-15" edge="1">
          <mxGeometry relative="1" as="geometry" />
        </mxCell>
        <mxCell id="Qatt-AjyccafXuUgTQb3-13" value="Updating basin array values&lt;div&gt;e.g. a&lt;span style=&quot;background-color: initial;&quot;&gt;dds the value at index &lt;/span&gt;&lt;code style=&quot;background-color: initial;&quot;&gt;i&lt;/code&gt;&lt;span style=&quot;background-color: initial;&quot;&gt; to the value at index &lt;/span&gt;&lt;code style=&quot;background-color: initial;&quot;&gt;ii(NEXT index of i)&lt;br&gt;&lt;/code&gt;&lt;/div&gt;" style="whiteSpace=wrap;html=1;rounded=1;" parent="7oljmgm_8Q_aeO7kgqim-69" vertex="1">
          <mxGeometry x="29.080000000000076" y="420" width="169.37" height="90" as="geometry" />
        </mxCell>
        <mxCell id="Qatt-AjyccafXuUgTQb3-18" value="" style="edgeStyle=orthogonalEdgeStyle;rounded=0;orthogonalLoop=1;jettySize=auto;html=1;" parent="7oljmgm_8Q_aeO7kgqim-69" source="Qatt-AjyccafXuUgTQb3-15" target="Qatt-AjyccafXuUgTQb3-17" edge="1">
          <mxGeometry relative="1" as="geometry" />
        </mxCell>
        <mxCell id="Qatt-AjyccafXuUgTQb3-15" value="Updating relative area function:&lt;div&gt;frac(ii) = frac(ii) + frac(i)&lt;br&gt;&lt;/div&gt;" style="whiteSpace=wrap;html=1;rounded=1;" parent="7oljmgm_8Q_aeO7kgqim-69" vertex="1">
          <mxGeometry x="30.640000000000022" y="540" width="166.25" height="90" as="geometry" />
        </mxCell>
        <mxCell id="Qatt-AjyccafXuUgTQb3-26" value="" style="edgeStyle=orthogonalEdgeStyle;rounded=0;orthogonalLoop=1;jettySize=auto;html=1;" parent="7oljmgm_8Q_aeO7kgqim-69" source="Qatt-AjyccafXuUgTQb3-17" target="Qatt-AjyccafXuUgTQb3-25" edge="1">
          <mxGeometry relative="1" as="geometry" />
        </mxCell>
        <mxCell id="Qatt-AjyccafXuUgTQb3-17" value="Updating basin array values by dividing by a fraction (frac) value:&lt;br&gt;vs%basin%fsin = vs%basin%fsin/frac" style="whiteSpace=wrap;html=1;rounded=1;" parent="7oljmgm_8Q_aeO7kgqim-69" vertex="1">
          <mxGeometry x="4.540000000000035" y="660" width="218.43" height="60" as="geometry" />
        </mxCell>
        <mxCell id="Qatt-AjyccafXuUgTQb3-25" value="end subroutine" style="whiteSpace=wrap;html=1;rounded=1;" parent="7oljmgm_8Q_aeO7kgqim-69" vertex="1">
          <mxGeometry x="53.750000000000036" y="752" width="120" height="60" as="geometry" />
        </mxCell>
        <mxCell id="Qatt-AjyccafXuUgTQb3-27" value="end subroutine" style="whiteSpace=wrap;html=1;rounded=1;" parent="7oljmgm_8Q_aeO7kgqim-69" vertex="1">
          <mxGeometry x="53.750000000000036" y="752" width="120" height="60" as="geometry" />
        </mxCell>
        <mxCell id="7oljmgm_8Q_aeO7kgqim-62" style="edgeStyle=orthogonalEdgeStyle;rounded=0;orthogonalLoop=1;jettySize=auto;html=1;entryX=0.5;entryY=0;entryDx=0;entryDy=0;" parent="7oljmgm_8Q_aeO7kgqim-69" source="7oljmgm_8Q_aeO7kgqim-55" target="7oljmgm_8Q_aeO7kgqim-56" edge="1">
          <mxGeometry relative="1" as="geometry" />
        </mxCell>
        <mxCell id="7oljmgm_8Q_aeO7kgqim-55" value="Initialize variables and parameters e.g. fls, shd, cm, etc." style="rounded=1;whiteSpace=wrap;html=1;" parent="7oljmgm_8Q_aeO7kgqim-69" vertex="1">
          <mxGeometry x="46.702105263157826" y="89.99898203592807" width="134.10526315789477" height="56.40718562874251" as="geometry" />
        </mxCell>
        <mxCell id="7oljmgm_8Q_aeO7kgqim-56" value="head node and&amp;nbsp;&lt;div&gt;ro%RUNGRID == True&lt;/div&gt;" style="rhombus;whiteSpace=wrap;html=1;rounded=1;fillColor=#F19C99;" parent="7oljmgm_8Q_aeO7kgqim-69" vertex="1">
          <mxGeometry x="29.500000000000007" y="170" width="168.5" height="83.59" as="geometry" />
        </mxCell>
        <mxCell id="7oljmgm_8Q_aeO7kgqim-70" value="" style="group" parent="1" vertex="1" connectable="0">
          <mxGeometry x="520" y="1160" width="190" height="438" as="geometry" />
        </mxCell>
        <mxCell id="Qatt-AjyccafXuUgTQb3-21" value="" style="edgeStyle=orthogonalEdgeStyle;rounded=0;orthogonalLoop=1;jettySize=auto;html=1;" parent="7oljmgm_8Q_aeO7kgqim-70" source="Qatt-AjyccafXuUgTQb3-19" target="7oljmgm_8Q_aeO7kgqim-63" edge="1">
          <mxGeometry relative="1" as="geometry">
            <mxPoint x="83.25" y="92" as="targetPoint" />
          </mxGeometry>
        </mxCell>
        <mxCell id="Qatt-AjyccafXuUgTQb3-19" value="run_between_grid_finalize" style="rounded=1;whiteSpace=wrap;html=1;" parent="7oljmgm_8Q_aeO7kgqim-70" vertex="1">
          <mxGeometry x="5.25" width="158" height="60" as="geometry" />
        </mxCell>
        <mxCell id="Qatt-AjyccafXuUgTQb3-29" value="" style="edgeStyle=orthogonalEdgeStyle;rounded=0;orthogonalLoop=1;jettySize=auto;html=1;" parent="7oljmgm_8Q_aeO7kgqim-70" source="Qatt-AjyccafXuUgTQb3-23" target="Qatt-AjyccafXuUgTQb3-28" edge="1">
          <mxGeometry relative="1" as="geometry" />
        </mxCell>
        <mxCell id="Qatt-AjyccafXuUgTQb3-23" value="Call processes:&lt;div&gt;&lt;div&gt;WF_ROUTE_finalize&amp;nbsp;(fls, shd)&lt;/div&gt;&lt;div&gt;&lt;span style=&quot;background-color: initial;&quot;&gt;run_rte_finalize&amp;nbsp;&lt;/span&gt;&lt;span style=&quot;background-color: initial;&quot;&gt;(fls, shd)&lt;/span&gt;&lt;/div&gt;&lt;/div&gt;" style="whiteSpace=wrap;html=1;rounded=1;" parent="7oljmgm_8Q_aeO7kgqim-70" vertex="1">
          <mxGeometry x="-11.94" y="270" width="175.19" height="80" as="geometry" />
        </mxCell>
        <mxCell id="Qatt-AjyccafXuUgTQb3-28" value="end subroutine" style="whiteSpace=wrap;html=1;rounded=1;" parent="7oljmgm_8Q_aeO7kgqim-70" vertex="1">
          <mxGeometry x="15.649999999999995" y="378" width="120" height="60" as="geometry" />
        </mxCell>
        <mxCell id="7oljmgm_8Q_aeO7kgqim-65" style="edgeStyle=orthogonalEdgeStyle;rounded=0;orthogonalLoop=1;jettySize=auto;html=1;entryX=0.5;entryY=0;entryDx=0;entryDy=0;" parent="7oljmgm_8Q_aeO7kgqim-70" source="7oljmgm_8Q_aeO7kgqim-63" target="7oljmgm_8Q_aeO7kgqim-64" edge="1">
          <mxGeometry relative="1" as="geometry" />
        </mxCell>
        <mxCell id="7oljmgm_8Q_aeO7kgqim-63" value="Initialize variables and parameters e.g. fls, shd, cm, etc." style="rounded=1;whiteSpace=wrap;html=1;" parent="7oljmgm_8Q_aeO7kgqim-70" vertex="1">
          <mxGeometry x="17.70210526315782" y="93.2089820359281" width="134.10526315789477" height="56.40718562874251" as="geometry" />
        </mxCell>
        <mxCell id="7oljmgm_8Q_aeO7kgqim-64" value="head node and&amp;nbsp;&lt;div&gt;ro%RUNGRID == True&lt;/div&gt;" style="rhombus;whiteSpace=wrap;html=1;rounded=1;fillColor=#F19C99;" parent="7oljmgm_8Q_aeO7kgqim-70" vertex="1">
          <mxGeometry y="173.21000000000004" width="168.5" height="83.59" as="geometry" />
        </mxCell>
        <mxCell id="7oljmgm_8Q_aeO7kgqim-66" style="edgeStyle=orthogonalEdgeStyle;rounded=0;orthogonalLoop=1;jettySize=auto;html=1;exitX=0.5;exitY=1;exitDx=0;exitDy=0;entryX=0.557;entryY=0.044;entryDx=0;entryDy=0;entryPerimeter=0;" parent="7oljmgm_8Q_aeO7kgqim-70" source="7oljmgm_8Q_aeO7kgqim-64" target="Qatt-AjyccafXuUgTQb3-23" edge="1">
          <mxGeometry relative="1" as="geometry" />
        </mxCell>
        <mxCell id="7oljmgm_8Q_aeO7kgqim-71" value="" style="group" parent="1" vertex="1" connectable="0">
          <mxGeometry x="470" y="90" width="272.24" height="1075" as="geometry" />
        </mxCell>
        <mxCell id="7oljmgm_8Q_aeO7kgqim-22" style="edgeStyle=orthogonalEdgeStyle;rounded=0;orthogonalLoop=1;jettySize=auto;html=1;entryX=0.5;entryY=0;entryDx=0;entryDy=0;" parent="7oljmgm_8Q_aeO7kgqim-71" source="wEJVVZ1OubtGXcDkp_JM-25" target="7oljmgm_8Q_aeO7kgqim-21" edge="1">
          <mxGeometry relative="1" as="geometry" />
        </mxCell>
        <mxCell id="wEJVVZ1OubtGXcDkp_JM-25" value="run_between_grid" style="rounded=1;whiteSpace=wrap;html=1;" parent="7oljmgm_8Q_aeO7kgqim-71" vertex="1">
          <mxGeometry x="69.36000000000001" width="140" height="40" as="geometry" />
        </mxCell>
        <mxCell id="7oljmgm_8Q_aeO7kgqim-51" style="edgeStyle=orthogonalEdgeStyle;rounded=0;orthogonalLoop=1;jettySize=auto;html=1;entryX=0.5;entryY=0;entryDx=0;entryDy=0;" parent="7oljmgm_8Q_aeO7kgqim-71" source="7oljmgm_8Q_aeO7kgqim-21" target="7oljmgm_8Q_aeO7kgqim-50" edge="1">
          <mxGeometry relative="1" as="geometry" />
        </mxCell>
        <mxCell id="7oljmgm_8Q_aeO7kgqim-21" value="Initialize variables and parameters e.g. fls, shd, cm, etc." style="rounded=1;whiteSpace=wrap;html=1;" parent="7oljmgm_8Q_aeO7kgqim-71" vertex="1">
          <mxGeometry x="72.31210526315783" y="64.99898203592812" width="134.10526315789477" height="56.40718562874251" as="geometry" />
        </mxCell>
        <mxCell id="7oljmgm_8Q_aeO7kgqim-50" value="head node and&amp;nbsp;&lt;div&gt;ro%RUNGRID == True&lt;/div&gt;" style="rhombus;whiteSpace=wrap;html=1;rounded=1;fillColor=#F19C99;" parent="7oljmgm_8Q_aeO7kgqim-71" vertex="1">
          <mxGeometry x="55.110000000000014" y="145" width="168.5" height="83.59" as="geometry" />
        </mxCell>
        <mxCell id="wEJVVZ1OubtGXcDkp_JM-29" value="" style="edgeStyle=orthogonalEdgeStyle;rounded=0;orthogonalLoop=1;jettySize=auto;html=1;" parent="7oljmgm_8Q_aeO7kgqim-71" source="wEJVVZ1OubtGXcDkp_JM-26" target="wEJVVZ1OubtGXcDkp_JM-28" edge="1">
          <mxGeometry relative="1" as="geometry" />
        </mxCell>
        <mxCell id="wEJVVZ1OubtGXcDkp_JM-26" value="read reservoir release values (fms%rsvr) if exists" style="whiteSpace=wrap;html=1;rounded=1;" parent="7oljmgm_8Q_aeO7kgqim-71" vertex="1">
          <mxGeometry x="62.870000000000005" y="262.59" width="146.49" height="62.41" as="geometry" />
        </mxCell>
        <mxCell id="wEJVVZ1OubtGXcDkp_JM-31" value="" style="edgeStyle=orthogonalEdgeStyle;rounded=0;orthogonalLoop=1;jettySize=auto;html=1;entryX=0.5;entryY=0;entryDx=0;entryDy=0;" parent="7oljmgm_8Q_aeO7kgqim-71" source="wEJVVZ1OubtGXcDkp_JM-28" target="zLIidXRwlXcN-wc7JwWP-7" edge="1">
          <mxGeometry relative="1" as="geometry">
            <mxPoint x="135.5980952380952" y="442" as="targetPoint" />
          </mxGeometry>
        </mxCell>
        <mxCell id="wEJVVZ1OubtGXcDkp_JM-28" value="read observed streamflow values (fms%stmg) if exists" style="whiteSpace=wrap;html=1;rounded=1;" parent="7oljmgm_8Q_aeO7kgqim-71" vertex="1">
          <mxGeometry x="62.870000000000005" y="355" width="146.49" height="60" as="geometry" />
        </mxCell>
        <mxCell id="wEJVVZ1OubtGXcDkp_JM-35" value="" style="edgeStyle=orthogonalEdgeStyle;rounded=0;orthogonalLoop=1;jettySize=auto;html=1;exitX=0.5;exitY=1;exitDx=0;exitDy=0;" parent="7oljmgm_8Q_aeO7kgqim-71" target="wEJVVZ1OubtGXcDkp_JM-34" edge="1" source="zLIidXRwlXcN-wc7JwWP-7">
          <mxGeometry relative="1" as="geometry">
            <mxPoint x="149.7488888888887" y="685" as="sourcePoint" />
          </mxGeometry>
        </mxCell>
        <mxCell id="wEJVVZ1OubtGXcDkp_JM-38" style="edgeStyle=orthogonalEdgeStyle;rounded=0;orthogonalLoop=1;jettySize=auto;html=1;entryX=0.5;entryY=0;entryDx=0;entryDy=0;" parent="7oljmgm_8Q_aeO7kgqim-71" source="wEJVVZ1OubtGXcDkp_JM-34" target="wEJVVZ1OubtGXcDkp_JM-37" edge="1">
          <mxGeometry relative="1" as="geometry">
            <mxPoint x="134.37" y="832.59" as="targetPoint" />
          </mxGeometry>
        </mxCell>
        <mxCell id="wEJVVZ1OubtGXcDkp_JM-34" value="&lt;div&gt;Call processes:&lt;/div&gt;&lt;div&gt;SA_RTE(shd)&lt;br&gt;&lt;/div&gt;&lt;div&gt;WF_ROUTE_between_grid(fls, shd)&lt;/div&gt;&lt;div&gt;&amp;nbsp; &amp;nbsp; &amp;nbsp; &amp;nbsp; call run_rte_between_grid&amp;nbsp;(fls, shd)&lt;/div&gt;&lt;div&gt;&amp;nbsp; &amp;nbsp; &amp;nbsp; &amp;nbsp; call runci_between_grid&amp;nbsp;(fls, shd,cm)&lt;/div&gt;" style="whiteSpace=wrap;html=1;rounded=1;" parent="7oljmgm_8Q_aeO7kgqim-71" vertex="1">
          <mxGeometry x="18.5" y="550" width="235.24" height="120" as="geometry" />
        </mxCell>
        <mxCell id="zLIidXRwlXcN-wc7JwWP-13" style="edgeStyle=orthogonalEdgeStyle;rounded=0;orthogonalLoop=1;jettySize=auto;html=1;entryX=0.5;entryY=0;entryDx=0;entryDy=0;" edge="1" parent="7oljmgm_8Q_aeO7kgqim-71" source="wEJVVZ1OubtGXcDkp_JM-37" target="zLIidXRwlXcN-wc7JwWP-11">
          <mxGeometry relative="1" as="geometry" />
        </mxCell>
        <mxCell id="wEJVVZ1OubtGXcDkp_JM-37" value="call run_within_grid_stas_basin_update (fls, shd,cm):&lt;div&gt;update basin variables&lt;/div&gt;" style="whiteSpace=wrap;html=1;rounded=1;" parent="7oljmgm_8Q_aeO7kgqim-71" vertex="1">
          <mxGeometry y="700" width="272.24" height="80" as="geometry" />
        </mxCell>
        <mxCell id="wEJVVZ1OubtGXcDkp_JM-41" value="end subroutine" style="whiteSpace=wrap;html=1;rounded=1;" parent="7oljmgm_8Q_aeO7kgqim-71" vertex="1">
          <mxGeometry x="75.29000000000002" y="900" width="120" height="60" as="geometry" />
        </mxCell>
        <mxCell id="Qatt-AjyccafXuUgTQb3-7" style="edgeStyle=orthogonalEdgeStyle;rounded=0;orthogonalLoop=1;jettySize=auto;html=1;exitX=0.5;exitY=1;exitDx=0;exitDy=0;entryX=0.5;entryY=0;entryDx=0;entryDy=0;" parent="7oljmgm_8Q_aeO7kgqim-71" target="wEJVVZ1OubtGXcDkp_JM-26" edge="1">
          <mxGeometry relative="1" as="geometry">
            <mxPoint x="136.87" y="228.58999999999997" as="sourcePoint" />
          </mxGeometry>
        </mxCell>
        <mxCell id="zLIidXRwlXcN-wc7JwWP-9" style="edgeStyle=orthogonalEdgeStyle;rounded=0;orthogonalLoop=1;jettySize=auto;html=1;" edge="1" parent="7oljmgm_8Q_aeO7kgqim-71" source="zLIidXRwlXcN-wc7JwWP-7">
          <mxGeometry relative="1" as="geometry">
            <mxPoint x="240" y="482.5" as="targetPoint" />
          </mxGeometry>
        </mxCell>
        <mxCell id="zLIidXRwlXcN-wc7JwWP-7" value="&lt;div&gt;ro%RUNLSS == True&lt;/div&gt;" style="rhombus;whiteSpace=wrap;html=1;rounded=1;fillColor=#F19C99;" vertex="1" parent="7oljmgm_8Q_aeO7kgqim-71">
          <mxGeometry x="61.23" y="445" width="148.13" height="75" as="geometry" />
        </mxCell>
        <mxCell id="zLIidXRwlXcN-wc7JwWP-14" style="edgeStyle=orthogonalEdgeStyle;rounded=0;orthogonalLoop=1;jettySize=auto;html=1;entryX=0.5;entryY=0;entryDx=0;entryDy=0;" edge="1" parent="7oljmgm_8Q_aeO7kgqim-71" source="zLIidXRwlXcN-wc7JwWP-11" target="wEJVVZ1OubtGXcDkp_JM-41">
          <mxGeometry relative="1" as="geometry" />
        </mxCell>
        <mxCell id="zLIidXRwlXcN-wc7JwWP-11" value="call output_variables_update(shd):&lt;div&gt;update output variables&lt;/div&gt;" style="whiteSpace=wrap;html=1;rounded=1;" vertex="1" parent="7oljmgm_8Q_aeO7kgqim-71">
          <mxGeometry x="32.79000000000001" y="810" width="205" height="60" as="geometry" />
        </mxCell>
        <mxCell id="7oljmgm_8Q_aeO7kgqim-2" value="" style="edgeStyle=orthogonalEdgeStyle;rounded=0;orthogonalLoop=1;jettySize=auto;html=1;" parent="1" source="wEJVVZ1OubtGXcDkp_JM-2" target="7oljmgm_8Q_aeO7kgqim-1" edge="1">
          <mxGeometry relative="1" as="geometry" />
        </mxCell>
        <mxCell id="wEJVVZ1OubtGXcDkp_JM-2" value="run_between_grid_init" style="rounded=1;whiteSpace=wrap;html=1;fontStyle=1" parent="1" vertex="1">
          <mxGeometry x="91.8421052631579" y="90" width="134.10526315789477" height="37.60479041916167" as="geometry" />
        </mxCell>
        <mxCell id="zLIidXRwlXcN-wc7JwWP-5" style="edgeStyle=orthogonalEdgeStyle;rounded=0;orthogonalLoop=1;jettySize=auto;html=1;entryX=0.5;entryY=0;entryDx=0;entryDy=0;" edge="1" parent="1" source="wEJVVZ1OubtGXcDkp_JM-10" target="wEJVVZ1OubtGXcDkp_JM-21">
          <mxGeometry relative="1" as="geometry" />
        </mxCell>
        <mxCell id="wEJVVZ1OubtGXcDkp_JM-10" value="Call Processes:&lt;div&gt;SA_RTE(shd)&lt;br&gt;&lt;div&gt;&lt;div&gt;WF_ROUTE_init&amp;nbsp;(fls, shd)&lt;/div&gt;&lt;div&gt;run_rte_init&amp;nbsp;(fls, shd)&lt;/div&gt;&lt;div&gt;&amp;nbsp; &amp;nbsp; &amp;nbsp; &amp;nbsp; runci_between_grid_init&amp;nbsp;(fls, shd)&lt;/div&gt;&lt;/div&gt;&lt;/div&gt;" style="rounded=1;whiteSpace=wrap;html=1;" parent="1" vertex="1">
          <mxGeometry x="50.870000000000005" y="360" width="206.47" height="77.16" as="geometry" />
        </mxCell>
        <mxCell id="wEJVVZ1OubtGXcDkp_JM-24" value="" style="edgeStyle=orthogonalEdgeStyle;rounded=0;orthogonalLoop=1;jettySize=auto;html=1;" parent="1" source="wEJVVZ1OubtGXcDkp_JM-21" target="wEJVVZ1OubtGXcDkp_JM-23" edge="1">
          <mxGeometry relative="1" as="geometry" />
        </mxCell>
        <mxCell id="wEJVVZ1OubtGXcDkp_JM-21" value="call run_within_grid_stas_basin_update(fls, shd, cm):&lt;div&gt;update basin variables&lt;/div&gt;" style="whiteSpace=wrap;html=1;rounded=1;" parent="1" vertex="1">
          <mxGeometry x="31.080000000000005" y="470" width="246.05" height="80" as="geometry" />
        </mxCell>
        <mxCell id="wEJVVZ1OubtGXcDkp_JM-23" value="end subroutine" style="whiteSpace=wrap;html=1;rounded=1;" parent="1" vertex="1">
          <mxGeometry x="96.63421052631583" y="572.5928143712574" width="114.94736842105263" height="56.40718562874251" as="geometry" />
        </mxCell>
        <mxCell id="7oljmgm_8Q_aeO7kgqim-11" style="edgeStyle=orthogonalEdgeStyle;rounded=0;orthogonalLoop=1;jettySize=auto;html=1;exitX=0.5;exitY=1;exitDx=0;exitDy=0;entryX=0.5;entryY=0;entryDx=0;entryDy=0;" parent="1" source="7oljmgm_8Q_aeO7kgqim-1" target="7oljmgm_8Q_aeO7kgqim-4" edge="1">
          <mxGeometry relative="1" as="geometry" />
        </mxCell>
        <mxCell id="7oljmgm_8Q_aeO7kgqim-1" value="Initialize variables and parameters e.g. fls, shd,&amp;nbsp;cm, etc." style="rounded=1;whiteSpace=wrap;html=1;" parent="1" vertex="1">
          <mxGeometry x="89.71210526315791" y="149.99898203592812" width="134.10526315789477" height="56.40718562874251" as="geometry" />
        </mxCell>
        <mxCell id="zLIidXRwlXcN-wc7JwWP-4" style="edgeStyle=orthogonalEdgeStyle;rounded=0;orthogonalLoop=1;jettySize=auto;html=1;exitX=0.5;exitY=1;exitDx=0;exitDy=0;" edge="1" parent="1" source="7oljmgm_8Q_aeO7kgqim-4" target="wEJVVZ1OubtGXcDkp_JM-10">
          <mxGeometry relative="1" as="geometry" />
        </mxCell>
        <mxCell id="7oljmgm_8Q_aeO7kgqim-4" value="head node and&amp;nbsp;&lt;div&gt;ro%RUNGRID == True&lt;/div&gt;" style="rhombus;whiteSpace=wrap;html=1;rounded=1;fillColor=#F19C99;" parent="1" vertex="1">
          <mxGeometry x="63.10526315789475" y="239.99976047904192" width="182.00000000000003" height="84.61077844311376" as="geometry" />
        </mxCell>
        <mxCell id="7oljmgm_8Q_aeO7kgqim-18" value="" style="edgeStyle=orthogonalEdgeStyle;rounded=0;orthogonalLoop=1;jettySize=auto;html=1;" parent="1" target="wEJVVZ1OubtGXcDkp_JM-14" edge="1">
          <mxGeometry relative="1" as="geometry">
            <mxPoint x="230.59910660409037" y="605.25" as="sourcePoint" />
          </mxGeometry>
        </mxCell>
        <mxCell id="7oljmgm_8Q_aeO7kgqim-19" value="Yes" style="edgeLabel;html=1;align=center;verticalAlign=middle;resizable=0;points=[];" parent="7oljmgm_8Q_aeO7kgqim-18" vertex="1" connectable="0">
          <mxGeometry x="-0.0889" y="1" relative="1" as="geometry">
            <mxPoint as="offset" />
          </mxGeometry>
        </mxCell>
        <mxCell id="wEJVVZ1OubtGXcDkp_JM-17" value="" style="edgeStyle=orthogonalEdgeStyle;rounded=0;orthogonalLoop=1;jettySize=auto;html=1;exitX=0.5;exitY=1;exitDx=0;exitDy=0;" parent="1" target="wEJVVZ1OubtGXcDkp_JM-16" edge="1">
          <mxGeometry relative="1" as="geometry">
            <mxPoint x="364.8415789473686" y="628.688622754491" as="sourcePoint" />
          </mxGeometry>
        </mxCell>
        <mxCell id="zLIidXRwlXcN-wc7JwWP-6" value="Update grid variables" style="whiteSpace=wrap;html=1;rounded=1;" vertex="1" parent="1">
          <mxGeometry x="710" y="550" width="116.49" height="40" as="geometry" />
        </mxCell>
      </root>
    </mxGraphModel>
  </diagram>
</mxfile>
